<svg xmlns="http://www.w3.org/2000/svg" xmlns:xlink="http://www.w3.org/1999/xlink" width="72" height="72" viewBox="0 0 72 72">
  <defs>
    <clipPath id="clip-Artboard_-_10">
      <rect width="72" height="72"/>
    </clipPath>
  </defs>
  <g id="Artboard_-_10" data-name="Artboard - 10" clip-path="url(#clip-Artboard_-_10)">
    <g id="Group_261" data-name="Group 261" transform="translate(183 809)">
      <g id="instagram" transform="translate(-166.969 -793)">
        <path id="Path_3" data-name="Path 3" d="M20.031,3.561a61.418,61.418,0,0,1,8.012.223,10.323,10.323,0,0,1,3.784.668A7.816,7.816,0,0,1,35.61,8.235a10.323,10.323,0,0,1,.668,3.784c0,2,.223,2.671.223,8.012a61.419,61.419,0,0,1-.223,8.012,10.323,10.323,0,0,1-.668,3.784,7.816,7.816,0,0,1-3.784,3.784,10.323,10.323,0,0,1-3.784.668c-2,0-2.671.223-8.012.223a61.419,61.419,0,0,1-8.012-.223,10.323,10.323,0,0,1-3.784-.668,7.816,7.816,0,0,1-3.784-3.784,10.323,10.323,0,0,1-.668-3.784c0-2-.223-2.671-.223-8.012a61.418,61.418,0,0,1,.223-8.012,10.323,10.323,0,0,1,.668-3.784A7.993,7.993,0,0,1,6.009,6.009,3.763,3.763,0,0,1,8.235,4.451a10.323,10.323,0,0,1,3.784-.668,61.418,61.418,0,0,1,8.012-.223m0-3.561A65.761,65.761,0,0,0,11.8.223a13.74,13.74,0,0,0-4.9.89A8.713,8.713,0,0,0,3.338,3.338,8.713,8.713,0,0,0,1.113,6.9a10.141,10.141,0,0,0-.89,4.9A65.761,65.761,0,0,0,0,20.031a65.761,65.761,0,0,0,.223,8.235,13.74,13.74,0,0,0,.89,4.9,8.713,8.713,0,0,0,2.226,3.561A8.713,8.713,0,0,0,6.9,38.948a13.74,13.74,0,0,0,4.9.89,65.759,65.759,0,0,0,8.235.223,65.758,65.758,0,0,0,8.235-.223,13.74,13.74,0,0,0,4.9-.89,9.338,9.338,0,0,0,5.787-5.787,13.74,13.74,0,0,0,.89-4.9c0-2.226.223-2.893.223-8.235a65.759,65.759,0,0,0-.223-8.235,13.74,13.74,0,0,0-.89-4.9,8.713,8.713,0,0,0-2.226-3.561,8.713,8.713,0,0,0-3.561-2.226,13.74,13.74,0,0,0-4.9-.89A65.76,65.76,0,0,0,20.031,0m0,9.793A10.073,10.073,0,0,0,9.793,20.031,10.238,10.238,0,1,0,20.031,9.793m0,16.915a6.558,6.558,0,0,1-6.677-6.677,6.558,6.558,0,0,1,6.677-6.677,6.558,6.558,0,0,1,6.677,6.677,6.558,6.558,0,0,1-6.677,6.677M30.713,6.9a2.448,2.448,0,1,0,2.448,2.448A2.47,2.47,0,0,0,30.713,6.9" fill="#fff" fill-rule="evenodd"/>
      </g>
      <g id="Ellipse_124" data-name="Ellipse 124" transform="translate(-183 -809)" fill="none" stroke="#fff" stroke-width="2">
        <circle cx="36" cy="36" r="36" stroke="none"/>
        <circle cx="36" cy="36" r="35" fill="none"/>
      </g>
    </g>
  </g>
</svg>
